# xmcd
#
# Track frame offsets: 
#        150
#        18556
#        34136
#        49409
#        65694
#        87110
#        105117
#        121512
#        144747
#        166343
#        176807
#        196864
#
# Disc length: 2870 seconds
#
# Revision: 0
# Processed by: cddbd v1.5.2PL0 Copyright (c) Steve Scherf et al.
# Submitted via: ExactAudioCopy v1.3
#
DISCID=9c0b340c
DTITLE=Skylar Gudasz - Oleander
DYEAR=2016
DGENRE=Americana
TTITLE0=Kick Out The Chair
TTITLE1=Just Friends
TTITLE2=I'll Be Your Man
TTITLE3=I'm So Happy I Could Die
TTITLE4=I Want To Be With You In The Darkness
TTITLE5=About Great Men
TTITLE6=Friday Night Blues
TTITLE7=Ships
TTITLE8=Aviary
TTITLE9=Sailor
TTITLE10=3000 Miles
TTITLE11=Car Song
EXTD=
EXTT0=
EXTT1=
EXTT2=
EXTT3=
EXTT4=
EXTT5=
EXTT6=
EXTT7=
EXTT8=
EXTT9=
EXTT10=
EXTT11=
PLAYORDER=
